<svg xmlns="http://www.w3.org/2000/svg"  viewBox="0 0 24 24" width="24px" height="24px"><path d="M8 11.5A4 4 0 1 0 8 19.5A4 4 0 1 0 8 11.5Z" opacity=".3"/><path d="M8,20.5c2.761,0,5-2.239,5-5s-2.239-5-5-5s-5,2.239-5,5S5.239,20.5,8,20.5z M8,12.5c1.657,0,3,1.343,3,3c0,1.657-1.343,3-3,3s-3-1.343-3-3C5,13.843,6.343,12.5,8,12.5z M8,14.5c0.552,0,1,0.448,1,1c0,0.552-0.448,1-1,1s-1-0.448-1-1C7,14.948,7.448,14.5,8,14.5z"/><path d="M6.606 20h2.788l-.206 1.776C9.173 21.904 9.065 22 8.936 22H7.064c-.129 0-.237-.096-.252-.224L6.606 20zM15.606 10h2.788l-.206 1.776C18.173 11.904 18.065 12 17.936 12h-1.872c-.129 0-.237-.096-.252-.224L15.606 10zM18.394 4h-2.788l.206-1.776C15.827 2.096 15.935 2 16.064 2h1.872c.129 0 .237.096.252.224L18.394 4zM20.295 6.707l-1.394-2.415 1.641-.709c.118-.051.256-.006.32.106l.936 1.621c.064.112.035.254-.068.33L20.295 6.707zM13.705 7.293l1.394 2.415-1.641.709c-.118.051-.256.006-.32-.106l-.936-1.621c-.064-.112-.035-.254.068-.33L13.705 7.293zM15.099 4.293l-1.394 2.415L12.27 5.641c-.103-.077-.133-.219-.068-.33l.936-1.621c.064-.112.202-.157.32-.106L15.099 4.293zM18.901 9.707l1.394-2.415 1.435 1.066c.103.077.133.219.068.33l-.936 1.621c-.064.112-.202.157-.32.106L18.901 9.707zM9.394 11H6.606l.206-1.776C6.827 9.096 6.935 9 7.064 9h1.872c.129 0 .237.096.252.224L9.394 11zM12.594 14.457L11.2 12.043l1.641-.709c.118-.051.256-.006.32.106l.936 1.621c.064.112.035.254-.068.33L12.594 14.457zM3.406 16.543L4.8 18.957l-1.641.709c-.118.051-.256.006-.32-.106l-.936-1.621c-.064-.112-.035-.254.068-.33L3.406 16.543zM4.8 12.043l-1.394 2.415-1.435-1.066c-.103-.077-.133-.219-.068-.33l.936-1.621c.064-.112.202-.157.32-.106L4.8 12.043zM11.2 18.957l1.394-2.415 1.435 1.066c.103.077.133.219.068.33l-.936 1.621c-.064.112-.202.157-.32.106L11.2 18.957z"/><path d="M17,11c2.209,0,4-1.791,4-4c0-2.209-1.791-4-4-4s-4,1.791-4,4C13,9.209,14.791,11,17,11z M17,5c1.105,0,2,0.895,2,2c0,1.105-0.895,2-2,2s-2-0.895-2-2C15,5.895,15.895,5,17,5z"/></svg>